# xmcd
#
# Track frame offsets:
#	150
#	15730
#	29679
#	46786
#	57789
#	71059
#	81812
#	93678
#	106175
#	118294
#	131497
#	144315
#	158379
#	168533
#
# Disc length: 2399 seconds
#
# Revision: 1
# Processed by: cddbd v1.5.1PL0 Copyright (c) Steve Scherf et al.
# Submitted via: audiograbber 1.80
#
DISCID=b8095d0e
DTITLE=Billie Jo Spears - Billie Jo Spears Wanted
DYEAR=1900
DGENRE=
TTITLE0=Blanket On The Ground
TTITLE1=Which Way You Goin' Billy
TTITLE2=For The Good Times
TTITLE3=Tennessee Waltz
TTITLE4=Fever
TTITLE5=I'm So Lonesome I Could Cry
TTITLE6=Look What They've Done To My Song Ma
TTITLE7=57 Chevrolet
TTITLE8=What I've Got In Mind
TTITLE9=It Coulda Been Me
TTITLE10=Dallas
TTITLE11=Mr. Walker, It's All Over
TTITLE12=I Stayed Long Enough
TTITLE13=Silver Threads and Golden Needles
EXTD=
EXTT0=
EXTT1=
EXTT2=
EXTT3=
EXTT4=
EXTT5=
EXTT6=
EXTT7=
EXTT8=
EXTT9=
EXTT10=
EXTT11=
EXTT12=
EXTT13=
PLAYORDER=
